<svg width="34" height="34" viewBox="0 0 34 34" fill="none" xmlns="http://www.w3.org/2000/svg">
<g filter="url(#filter0_d_1116_276)">
<rect x="1" width="32" height="32" rx="10" fill="#00C5D6"/>
<g clip-path="url(#clip0_1116_276)">
<path opacity="0.5" d="M26.1531 12.5487C27.0602 15.041 26.9401 17.7915 25.8193 20.1951C24.6984 22.5988 22.6686 24.4588 20.1764 25.3659L18.1813 19.8843C19.2197 19.5064 20.0655 18.7314 20.5325 17.7299C20.9995 16.7283 21.0495 15.5823 20.6716 14.5439C20.2936 13.5054 19.5186 12.6597 18.5171 12.1927C17.5156 11.7256 16.3695 11.6756 15.3311 12.0536L13.336 6.57202C15.8282 5.66493 18.5787 5.78502 20.9824 6.90587C23.3861 8.02672 25.246 10.0565 26.1531 12.5487Z" fill="#9E9BAD"/>
<path d="M13.051 5.78899C12.8433 5.86458 12.6741 6.01958 12.5807 6.21989C12.4873 6.42019 12.4773 6.6494 12.5529 6.85708L14.548 12.3386C14.6236 12.5463 14.7786 12.7155 14.9789 12.8089C15.1792 12.9023 15.4084 12.9123 15.6161 12.8367C16.3057 12.5859 17.0587 12.5696 17.7584 12.7904C18.4582 13.0112 19.0655 13.4567 19.4863 14.0578C19.9071 14.6589 20.1177 15.3821 20.0856 16.1151C20.0535 16.8482 19.7804 17.5501 19.3087 18.1122C18.837 18.6742 18.193 19.0649 17.4767 19.2236C16.7603 19.3824 16.0116 19.3003 15.3466 18.9902C14.6816 18.6801 14.1375 18.1592 13.7987 17.5083C13.4599 16.8575 13.3454 16.113 13.4728 15.3904C13.4918 15.2826 13.4894 15.1721 13.4657 15.0653C13.442 14.9584 13.3975 14.8573 13.3347 14.7676C13.2719 14.6779 13.192 14.6015 13.0997 14.5427C13.0074 14.4839 12.9044 14.4439 12.7966 14.4249L7.05161 13.4121C6.94381 13.3931 6.83332 13.3955 6.72645 13.4192C6.61959 13.4429 6.51843 13.4874 6.42877 13.5502C6.33912 13.613 6.26271 13.6928 6.20391 13.7851C6.14512 13.8775 6.10509 13.9805 6.08611 14.0883C5.67201 16.4368 6.04439 18.8563 7.1455 20.9716C8.24661 23.0869 10.0149 24.7798 12.1762 25.7877C14.3375 26.7956 16.7709 27.0622 19.0991 26.5461C21.4273 26.0301 23.5202 24.7602 25.0532 22.9335C26.5862 21.1068 27.4736 18.8253 27.5779 16.4429C27.6821 14.0604 26.9972 11.7102 25.6296 9.75658C24.262 7.80299 22.2879 6.35526 20.0137 5.6379C17.7394 4.92055 15.292 4.97365 13.051 5.78899ZM7.61957 15.204L11.755 15.9336C11.7514 16.5288 11.8539 17.1199 12.0577 17.6791C12.1122 17.8289 12.1724 17.9699 12.2403 18.1137L8.80202 20.5268C7.87808 18.9132 7.46575 17.0571 7.61957 15.204ZM9.75628 21.8878L13.2018 19.4764C13.7742 20.0559 14.4793 20.4872 15.2559 20.7328C16.0326 20.9784 16.8574 21.031 17.659 20.8859L19.0951 24.8316C17.4193 25.2714 15.6532 25.2284 14.0008 24.7075C12.3484 24.1866 10.877 23.2091 9.75628 21.8878ZM20.6613 24.2616L19.2251 20.3159C20.252 19.7321 21.039 18.8036 21.4467 17.6949C21.8543 16.5863 21.8564 15.3691 21.4524 14.2592C21.0484 13.1492 20.2644 12.2181 19.2395 11.6309C18.2146 11.0437 17.0149 10.8383 15.853 11.0511L14.4169 7.10537C16.628 6.522 18.9773 6.78615 21.0037 7.84596C23.03 8.90577 24.5871 10.6847 25.3692 12.8336C26.1513 14.9824 26.102 17.346 25.231 19.4604C24.3599 21.5748 22.73 23.2872 20.6613 24.2616Z" fill="#252836"/>
</g>
</g>
<defs>
<filter id="filter0_d_1116_276" x="0" y="0" width="34" height="34" filterUnits="userSpaceOnUse" color-interpolation-filters="sRGB">
<feFlood flood-opacity="0" result="BackgroundImageFix"/>
<feColorMatrix in="SourceAlpha" type="matrix" values="0 0 0 0 0 0 0 0 0 0 0 0 0 0 0 0 0 0 127 0" result="hardAlpha"/>
<feOffset dy="1"/>
<feGaussianBlur stdDeviation="0.5"/>
<feComposite in2="hardAlpha" operator="out"/>
<feColorMatrix type="matrix" values="0 0 0 0 0.00719998 0 0 0 0 0 0 0 0 0 0.0899997 0 0 0 0.6 0"/>
<feBlend mode="normal" in2="BackgroundImageFix" result="effect1_dropShadow_1116_276"/>
<feBlend mode="normal" in="SourceGraphic" in2="effect1_dropShadow_1116_276" result="shape"/>
</filter>
<clipPath id="clip0_1116_276">
<rect width="26.6667" height="26.6667" fill="white" transform="translate(3.66669 2.66669)"/>
</clipPath>
</defs>
</svg>
