<svg width="21" height="16" viewBox="0 0 21 16" fill="none" xmlns="http://www.w3.org/2000/svg">
<path d="M19.3203 0.5H1.32031C1.1214 0.5 0.930635 0.579018 0.789982 0.71967C0.64933 0.860322 0.570313 1.05109 0.570312 1.25V14C0.570313 14.3978 0.728348 14.7794 1.00965 15.0607C1.29096 15.342 1.67249 15.5 2.07031 15.5H18.5703C18.9681 15.5 19.3497 15.342 19.631 15.0607C19.9123 14.7794 20.0703 14.3978 20.0703 14V1.25C20.0703 1.05109 19.9913 0.860322 19.8506 0.71967C19.71 0.579018 19.5192 0.5 19.3203 0.5ZM17.3919 2L10.3203 8.48281L3.24875 2H17.3919ZM18.5703 14H2.07031V2.95531L9.81312 10.0531C9.95149 10.1801 10.1325 10.2506 10.3203 10.2506C10.5081 10.2506 10.6891 10.1801 10.8275 10.0531L18.5703 2.95531V14Z" fill="#CECBDE"/>
</svg>
