<svg width="23" height="24" viewBox="0 0 23 24" fill="none" xmlns="http://www.w3.org/2000/svg">
<path d="M10.0461 7.27052C9.11685 7.60875 8.30874 8.21494 7.72399 9.01244C7.13924 9.80993 6.80411 10.7629 6.76097 11.7509C6.71784 12.7389 6.96864 13.7174 7.48166 14.5628C7.99467 15.4083 8.74687 16.0826 9.64312 16.5005C10.5394 16.9185 11.5394 17.0612 12.5168 16.9108C13.4942 16.7604 14.4051 16.3235 15.1342 15.6554C15.8633 14.9873 16.3779 14.118 16.6129 13.1574C16.848 12.1968 16.7929 11.1882 16.4547 10.2589C16 9.01364 15.0699 7.99964 13.8684 7.4394C12.6669 6.87915 11.2923 6.81841 10.0461 7.27052ZM12.8963 15.1013C12.2768 15.3268 11.6043 15.3635 10.9639 15.2068C10.3236 15.0501 9.74402 14.707 9.29862 14.221C8.85323 13.7349 8.56197 13.1277 8.46168 12.4761C8.36139 11.8245 8.45657 11.1578 8.73519 10.5603C9.01381 9.96275 9.46335 9.46129 10.027 9.11928C10.5906 8.77726 11.243 8.61007 11.9016 8.63882C12.5603 8.66758 13.1956 8.891 13.7272 9.28083C14.2589 9.67067 14.663 10.2094 14.8885 10.8289C15.1909 11.6597 15.1509 12.5765 14.7772 13.3777C14.4036 14.1789 13.727 14.7989 12.8963 15.1013ZM20.447 9.04523C20.3996 8.90285 20.3483 8.7619 20.2931 8.62237L21.0895 6.26624C21.1312 6.14257 21.1432 6.01083 21.1247 5.88164C21.1062 5.75245 21.0576 5.62941 20.9828 5.52245C20.4155 4.70994 19.7429 3.97626 18.9826 3.3406C18.883 3.25747 18.7654 3.19873 18.6392 3.16906C18.5129 3.13939 18.3815 3.1396 18.2553 3.16967L15.8394 3.75633C15.7058 3.68969 15.5723 3.62743 15.4389 3.56956L14.3176 1.34162C14.2594 1.22558 14.1749 1.12474 14.0708 1.04715C13.9667 0.969552 13.846 0.917343 13.7181 0.894682C12.7427 0.721226 11.7485 0.678244 10.7618 0.766866C10.6318 0.778336 10.5063 0.820183 10.3954 0.889035C10.2845 0.957886 10.1914 1.05182 10.1234 1.16326L8.83246 3.27818C8.69151 3.32948 8.55055 3.38078 8.4096 3.43209L6.05454 2.63867C5.93087 2.59697 5.79913 2.58489 5.66994 2.60341C5.54075 2.62194 5.41771 2.67055 5.31075 2.74533C4.49824 3.31268 3.76456 3.98527 3.1289 4.74553C3.04577 4.8451 2.98703 4.96269 2.95736 5.08896C2.92768 5.21523 2.9279 5.34668 2.95797 5.47285L3.54606 7.89265C3.47965 8.02693 3.41739 8.16044 3.35929 8.29318L1.12885 9.40762C1.01281 9.46582 0.911976 9.55032 0.83438 9.65439C0.756784 9.75846 0.704574 9.87923 0.681914 10.007C0.508613 10.9826 0.465305 11.9768 0.553119 12.9638C0.564751 13.0938 0.606771 13.2193 0.675795 13.3301C0.744819 13.4409 0.838914 13.534 0.950495 13.6018L3.06541 14.8927C3.11671 15.0337 3.16802 15.1746 3.21932 15.3156L2.42591 17.6707C2.3842 17.7943 2.37212 17.9261 2.39064 18.0553C2.40917 18.1844 2.45778 18.3075 2.53256 18.4144C3.09991 19.227 3.77251 19.9606 4.53276 20.5963C4.63233 20.6794 4.74993 20.7382 4.87619 20.7678C5.00246 20.7975 5.13391 20.7973 5.26008 20.7672L7.67596 20.1806C7.81025 20.247 7.94376 20.3092 8.0765 20.3673L9.19485 22.5963C9.25305 22.7124 9.33755 22.8132 9.44162 22.8908C9.5457 22.9684 9.66646 23.0206 9.79428 23.0433C10.7698 23.2166 11.7641 23.2599 12.751 23.1721C12.8811 23.1604 13.0065 23.1184 13.1174 23.0494C13.2282 22.9804 13.3212 22.8863 13.389 22.7747L14.68 20.6598C14.8223 20.6124 14.9633 20.5611 15.1028 20.5059L17.459 21.3022C17.5826 21.3439 17.7144 21.356 17.8436 21.3375C17.9727 21.319 18.0958 21.2704 18.2027 21.1956C19.0156 20.6286 19.7493 19.956 20.3846 19.1954C20.4677 19.0958 20.5265 18.9782 20.5561 18.8519C20.5858 18.7257 20.5856 18.5942 20.5555 18.4681L19.9689 16.0522C20.0355 15.9185 20.0978 15.785 20.1556 15.6516L22.3836 14.5303C22.4996 14.4721 22.6005 14.3876 22.678 14.2836C22.7556 14.1795 22.8079 14.0587 22.8305 13.9309C23.0038 12.9553 23.0471 11.9611 22.9593 10.9742C22.9477 10.8441 22.9057 10.7187 22.8366 10.6078C22.7676 10.497 22.6735 10.404 22.5619 10.3362L20.447 9.04523ZM18.6395 8.98258C18.7591 9.25949 18.8624 9.54319 18.9487 9.83221C19.0076 10.0302 19.1379 10.1993 19.3143 10.3066L21.3349 11.5366C21.3599 12.1011 21.3347 12.6667 21.2595 13.2268L19.1385 14.2826C18.9537 14.3741 18.8093 14.5309 18.7334 14.7227C18.6221 15.0032 18.4945 15.2769 18.3511 15.5424C18.253 15.7239 18.2257 15.9353 18.2744 16.1357L18.8332 18.4354C18.4526 18.853 18.0355 19.236 17.5869 19.5796L15.3448 18.8226C15.1655 18.7622 14.9709 18.7646 14.7931 18.8295L14.7461 18.8466C14.4692 18.9662 14.1855 19.0695 13.8965 19.1558C13.6988 19.2152 13.5299 19.3453 13.422 19.5214L12.1876 21.5448C11.623 21.5698 11.0574 21.5445 10.4973 21.4694L9.44264 19.3513C9.35113 19.1664 9.19432 19.0221 9.00252 18.9462C8.72203 18.8349 8.44831 18.7072 8.18276 18.5639C8.00132 18.4658 7.78993 18.4384 7.58949 18.4872L5.28948 19.045C4.87181 18.6643 4.48888 18.2473 4.14525 17.7987L4.90221 15.5566C4.96834 15.361 4.95947 15.1477 4.87729 14.9582C4.75766 14.6813 4.6544 14.3976 4.56805 14.1086C4.5092 13.9106 4.37892 13.7416 4.20249 13.6342L2.18042 12.4003C2.15544 11.8358 2.18068 11.2702 2.25583 10.7101L4.37388 9.65541C4.55875 9.5639 4.70311 9.40708 4.77904 9.21529C4.89033 8.9348 5.01797 8.66108 5.1613 8.39553C5.25996 8.21379 5.28753 8.00186 5.23864 7.80093L4.68023 5.50225C5.06085 5.08458 5.47794 4.70165 5.92654 4.35802L8.16856 5.11498C8.36422 5.18111 8.57747 5.17223 8.76696 5.09006C9.04387 4.97043 9.32757 4.86717 9.6166 4.78082C9.8143 4.72143 9.98319 4.59129 10.091 4.41526L11.3249 2.39318C11.8894 2.36821 12.455 2.39344 13.0151 2.4686L14.0698 4.58665C14.1613 4.77152 14.3181 4.91588 14.5099 4.99181C14.7904 5.1031 15.0641 5.23074 15.3297 5.37407C15.5111 5.47218 15.7225 5.49952 15.9229 5.45078L18.2226 4.89202C18.6403 5.27264 19.0232 5.68973 19.3668 6.13833L18.6099 8.38035C18.543 8.57771 18.5525 8.79296 18.6366 8.98365L18.6395 8.98258Z" fill="#706D7E"/>
</svg>
