<svg width="8" height="11" viewBox="0 0 8 11" fill="none" xmlns="http://www.w3.org/2000/svg">
<path d="M3.33341 9.50002C3.33341 10.2334 2.73341 10.8334 2.00008 10.8334C1.26675 10.8334 0.666748 10.2334 0.666748 9.50002C0.666748 8.76669 1.26675 8.16669 2.00008 8.16669C2.73341 8.16669 3.33341 8.76669 3.33341 9.50002ZM2.00008 4.16669C1.26675 4.16669 0.666748 4.76669 0.666748 5.50002C0.666748 6.23335 1.26675 6.83335 2.00008 6.83335C2.73341 6.83335 3.33341 6.23335 3.33341 5.50002C3.33341 4.76669 2.73341 4.16669 2.00008 4.16669ZM2.00008 0.166687C1.26675 0.166687 0.666748 0.766687 0.666748 1.50002C0.666748 2.23335 1.26675 2.83335 2.00008 2.83335C2.73341 2.83335 3.33341 2.23335 3.33341 1.50002C3.33341 0.766687 2.73341 0.166687 2.00008 0.166687ZM6.00008 2.83335C6.73341 2.83335 7.33341 2.23335 7.33341 1.50002C7.33341 0.766687 6.73341 0.166687 6.00008 0.166687C5.26675 0.166687 4.66675 0.766687 4.66675 1.50002C4.66675 2.23335 5.26675 2.83335 6.00008 2.83335ZM6.00008 4.16669C5.26675 4.16669 4.66675 4.76669 4.66675 5.50002C4.66675 6.23335 5.26675 6.83335 6.00008 6.83335C6.73341 6.83335 7.33341 6.23335 7.33341 5.50002C7.33341 4.76669 6.73341 4.16669 6.00008 4.16669ZM6.00008 8.16669C5.26675 8.16669 4.66675 8.76669 4.66675 9.50002C4.66675 10.2334 5.26675 10.8334 6.00008 10.8334C6.73341 10.8334 7.33341 10.2334 7.33341 9.50002C7.33341 8.76669 6.73341 8.16669 6.00008 8.16669Z" fill="#464353"/>
</svg>
