<svg width="16" height="12" viewBox="0 0 16 12" fill="none" xmlns="http://www.w3.org/2000/svg">
<path d="M4.34375 1.5C4.34375 1.27622 4.43265 1.06161 4.59088 0.903379C4.74911 0.745145 4.96372 0.65625 5.1875 0.65625H14.1875C14.4113 0.65625 14.6259 0.745145 14.7841 0.903379C14.9424 1.06161 15.0312 1.27622 15.0312 1.5C15.0312 1.72378 14.9424 1.93839 14.7841 2.09662C14.6259 2.25486 14.4113 2.34375 14.1875 2.34375H5.1875C4.96372 2.34375 4.74911 2.25486 4.59088 2.09662C4.43265 1.93839 4.34375 1.72378 4.34375 1.5ZM14.1875 5.15625H5.1875C4.96372 5.15625 4.74911 5.24514 4.59088 5.40338C4.43265 5.56161 4.34375 5.77622 4.34375 6C4.34375 6.22378 4.43265 6.43839 4.59088 6.59662C4.74911 6.75485 4.96372 6.84375 5.1875 6.84375H14.1875C14.4113 6.84375 14.6259 6.75485 14.7841 6.59662C14.9424 6.43839 15.0312 6.22378 15.0312 6C15.0312 5.77622 14.9424 5.56161 14.7841 5.40338C14.6259 5.24514 14.4113 5.15625 14.1875 5.15625ZM14.1875 9.65625H5.1875C4.96372 9.65625 4.74911 9.74514 4.59088 9.90338C4.43265 10.0616 4.34375 10.2762 4.34375 10.5C4.34375 10.7238 4.43265 10.9384 4.59088 11.0966C4.74911 11.2549 4.96372 11.3438 5.1875 11.3438H14.1875C14.4113 11.3438 14.6259 11.2549 14.7841 11.0966C14.9424 10.9384 15.0312 10.7238 15.0312 10.5C15.0312 10.2762 14.9424 10.0616 14.7841 9.90338C14.6259 9.74514 14.4113 9.65625 14.1875 9.65625ZM2.09375 4.875C1.87125 4.875 1.65374 4.94098 1.46873 5.0646C1.28373 5.18821 1.13953 5.36391 1.05439 5.56948C0.969237 5.77505 0.946959 6.00125 0.990367 6.21948C1.03378 6.43771 1.14092 6.63816 1.29826 6.7955C1.45559 6.95283 1.65605 7.05998 1.87427 7.10338C2.0925 7.14679 2.3187 7.12451 2.52427 7.03936C2.72984 6.95422 2.90554 6.81002 3.02915 6.62502C3.15277 6.44001 3.21875 6.2225 3.21875 6C3.21875 5.70163 3.10022 5.41548 2.88925 5.2045C2.67827 4.99353 2.39212 4.875 2.09375 4.875ZM2.09375 0.375C1.87125 0.375 1.65374 0.44098 1.46873 0.564597C1.28373 0.688213 1.13953 0.863914 1.05439 1.06948C0.969237 1.27505 0.946959 1.50125 0.990367 1.71948C1.03378 1.93771 1.14092 2.13816 1.29826 2.29549C1.45559 2.45283 1.65605 2.55998 1.87427 2.60338C2.0925 2.64679 2.3187 2.62451 2.52427 2.53936C2.72984 2.45422 2.90554 2.31002 3.02915 2.12502C3.15277 1.94001 3.21875 1.7225 3.21875 1.5C3.21875 1.20163 3.10022 0.915483 2.88925 0.704505C2.67827 0.493526 2.39212 0.375 2.09375 0.375ZM2.09375 9.375C1.87125 9.375 1.65374 9.44098 1.46873 9.5646C1.28373 9.68821 1.13953 9.86391 1.05439 10.0695C0.969237 10.275 0.946959 10.5012 0.990367 10.7195C1.03378 10.9377 1.14092 11.1382 1.29826 11.2955C1.45559 11.4528 1.65605 11.56 1.87427 11.6034C2.0925 11.6468 2.3187 11.6245 2.52427 11.5394C2.72984 11.4542 2.90554 11.31 3.02915 11.125C3.15277 10.94 3.21875 10.7225 3.21875 10.5C3.21875 10.2016 3.10022 9.91548 2.88925 9.7045C2.67827 9.49353 2.39212 9.375 2.09375 9.375Z" fill="#9E9BAD"/>
</svg>
