<svg width="32" height="32" viewBox="0 0 32 32" fill="none" xmlns="http://www.w3.org/2000/svg">
<rect width="32" height="32" rx="10" fill="#252836"/>
<g clip-path="url(#clip0_1116_1819)">
<path opacity="0.2" d="M23.4016 12.652L24.2959 9.99856C23.7712 9.2464 23.1487 8.56748 22.4448 7.9797L19.7244 8.6373C19.43 8.47806 19.1264 8.33649 18.8152 8.21332L17.5699 5.7057C16.6673 5.54717 15.7477 5.50914 14.8351 5.59259L13.377 7.98229C13.0559 8.07807 12.7408 8.19276 12.4334 8.32573L9.77995 7.4314C9.03074 7.95572 8.35448 8.57723 7.76893 9.27963L8.42652 12C8.26729 12.2944 8.12571 12.598 8.00254 12.9092L5.49493 14.1545C5.3364 15.0571 5.29836 15.9768 5.38182 16.8894L7.77151 18.3475C7.8673 18.6685 7.98198 18.9836 8.11496 19.2911L7.22062 21.9445C7.74527 22.6966 8.36778 23.3756 9.0717 23.9633L11.7921 23.3058C12.0865 23.465 12.3901 23.6066 12.7013 23.7297L13.9466 26.2373C14.8492 26.3959 15.7688 26.4339 16.6814 26.3505L18.1396 23.9608C18.4606 23.865 18.7757 23.7503 19.0832 23.6173L21.7366 24.5116C22.4887 23.987 23.1676 23.3645 23.7554 22.6606L23.0978 19.9402C23.2571 19.6458 23.3986 19.3422 23.5218 19.0309L26.0294 17.7857C26.1879 16.8831 26.226 15.9634 26.1425 15.0508L23.7528 13.5927C23.6544 13.2725 23.5371 12.9583 23.4016 12.652ZM17.1813 19.8843C16.4069 20.1662 15.5663 20.2121 14.7659 20.0162C13.9654 19.8203 13.241 19.3915 12.6842 18.7839C12.1275 18.1763 11.7634 17.4173 11.638 16.6028C11.5127 15.7883 11.6317 14.9549 11.9799 14.208C12.3282 13.4612 12.8901 12.8343 13.5947 12.4068C14.2992 11.9793 15.1147 11.7703 15.938 11.8062C16.7613 11.8422 17.5554 12.1215 18.22 12.6088C18.8846 13.096 19.3897 13.7695 19.6716 14.5439C20.0495 15.5823 19.9995 16.7283 19.5325 17.7299C19.0655 18.7314 18.2197 19.5064 17.1813 19.8843Z" fill="#CECBDE"/>
<path d="M14.0461 11.2705C13.1168 11.6087 12.3087 12.2149 11.724 13.0124C11.1392 13.8099 10.8041 14.7629 10.761 15.7509C10.7178 16.7389 10.9686 17.7174 11.4817 18.5628C11.9947 19.4083 12.7469 20.0826 13.6431 20.5005C14.5394 20.9185 15.5394 21.0612 16.5168 20.9108C17.4942 20.7604 18.4051 20.3235 19.1342 19.6554C19.8633 18.9873 20.3779 18.118 20.6129 17.1574C20.848 16.1968 20.7929 15.1882 20.4547 14.2589C20 13.0136 19.0699 11.9996 17.8684 11.4394C16.6669 10.8791 15.2923 10.8184 14.0461 11.2705ZM16.8963 19.1013C16.2768 19.3268 15.6043 19.3635 14.9639 19.2068C14.3236 19.0501 13.744 18.707 13.2986 18.221C12.8532 17.7349 12.562 17.1277 12.4617 16.4761C12.3614 15.8245 12.4566 15.1578 12.7352 14.5603C13.0138 13.9628 13.4634 13.4613 14.027 13.1193C14.5906 12.7773 15.243 12.6101 15.9016 12.6388C16.5603 12.6676 17.1956 12.891 17.7272 13.2808C18.2589 13.6707 18.663 14.2094 18.8885 14.8289C19.1909 15.6597 19.1509 16.5765 18.7772 17.3777C18.4036 18.1789 17.727 18.7989 16.8963 19.1013ZM24.447 13.0452C24.3996 12.9029 24.3483 12.7619 24.2931 12.6224L25.0895 10.2662C25.1312 10.1426 25.1432 10.0108 25.1247 9.88164C25.1062 9.75245 25.0576 9.62941 24.9828 9.52245C24.4155 8.70994 23.7429 7.97626 22.9826 7.3406C22.883 7.25747 22.7654 7.19873 22.6392 7.16906C22.5129 7.13939 22.3815 7.1396 22.2553 7.16967L19.8394 7.75633C19.7058 7.68969 19.5723 7.62743 19.4389 7.56956L18.3176 5.34162C18.2594 5.22558 18.1749 5.12474 18.0708 5.04715C17.9667 4.96955 17.846 4.91734 17.7181 4.89468C16.7427 4.72123 15.7485 4.67824 14.7618 4.76687C14.6318 4.77834 14.5063 4.82018 14.3954 4.88903C14.2845 4.95789 14.1914 5.05182 14.1234 5.16326L12.8325 7.27818C12.6915 7.32948 12.5506 7.38078 12.4096 7.43209L10.0545 6.63867C9.93087 6.59697 9.79913 6.58489 9.66994 6.60341C9.54075 6.62194 9.41771 6.67055 9.31075 6.74533C8.49824 7.31268 7.76456 7.98527 7.1289 8.74553C7.04577 8.8451 6.98703 8.96269 6.95736 9.08896C6.92768 9.21523 6.9279 9.34668 6.95797 9.47285L7.54606 11.8926C7.47965 12.0269 7.41739 12.1604 7.35929 12.2932L5.12885 13.4076C5.01281 13.4658 4.91198 13.5503 4.83438 13.6544C4.75678 13.7585 4.70457 13.8792 4.68191 14.007C4.50861 14.9826 4.4653 15.9768 4.55312 16.9638C4.56475 17.0938 4.60677 17.2193 4.6758 17.3301C4.74482 17.4409 4.83891 17.534 4.95049 17.6018L7.06541 18.8927C7.11671 19.0337 7.16802 19.1746 7.21932 19.3156L6.42591 21.6707C6.3842 21.7943 6.37212 21.9261 6.39064 22.0553C6.40917 22.1844 6.45778 22.3075 6.53256 22.4144C7.09991 23.227 7.77251 23.9606 8.53276 24.5963C8.63233 24.6794 8.74993 24.7382 8.87619 24.7678C9.00246 24.7975 9.13391 24.7973 9.26008 24.7672L11.676 24.1806C11.8102 24.247 11.9438 24.3092 12.0765 24.3673L13.1949 26.5963C13.2531 26.7124 13.3376 26.8132 13.4416 26.8908C13.5457 26.9684 13.6665 27.0206 13.7943 27.0433C14.7698 27.2166 15.7641 27.2599 16.751 27.1721C16.8811 27.1604 17.0065 27.1184 17.1174 27.0494C17.2282 26.9804 17.3212 26.8863 17.389 26.7747L18.68 24.6598C18.8223 24.6124 18.9633 24.5611 19.1028 24.5059L21.459 25.3022C21.5826 25.3439 21.7144 25.356 21.8436 25.3375C21.9727 25.319 22.0958 25.2704 22.2027 25.1956C23.0156 24.6286 23.7493 23.956 24.3846 23.1954C24.4677 23.0958 24.5265 22.9782 24.5561 22.8519C24.5858 22.7257 24.5856 22.5942 24.5555 22.4681L23.9689 20.0522C24.0355 19.9185 24.0978 19.785 24.1556 19.6516L26.3836 18.5303C26.4996 18.4721 26.6005 18.3876 26.678 18.2836C26.7556 18.1795 26.8079 18.0587 26.8305 17.9309C27.0038 16.9553 27.0471 15.9611 26.9593 14.9742C26.9477 14.8441 26.9057 14.7187 26.8366 14.6078C26.7676 14.497 26.6735 14.404 26.5619 14.3362L24.447 13.0452ZM22.6395 12.9826C22.7591 13.2595 22.8624 13.5432 22.9487 13.8322C23.0076 14.0302 23.1379 14.1993 23.3143 14.3066L25.3349 15.5366C25.3599 16.1011 25.3347 16.6667 25.2595 17.2268L23.1385 18.2826C22.9537 18.3741 22.8093 18.5309 22.7334 18.7227C22.6221 19.0032 22.4945 19.2769 22.3511 19.5424C22.253 19.7239 22.2257 19.9353 22.2744 20.1357L22.8332 22.4354C22.4526 22.853 22.0355 23.236 21.5869 23.5796L19.3448 22.8226C19.1655 22.7622 18.9709 22.7646 18.7931 22.8295L18.7461 22.8466C18.4692 22.9662 18.1855 23.0695 17.8965 23.1558C17.6988 23.2152 17.5299 23.3453 17.422 23.5214L16.1876 25.5448C15.623 25.5698 15.0574 25.5445 14.4973 25.4694L13.4426 23.3513C13.3511 23.1664 13.1943 23.0221 13.0025 22.9462C12.722 22.8349 12.4483 22.7072 12.1828 22.5639C12.0013 22.4658 11.7899 22.4384 11.5895 22.4872L9.28948 23.045C8.87181 22.6643 8.48888 22.2473 8.14525 21.7987L8.90221 19.5566C8.96834 19.361 8.95947 19.1477 8.87729 18.9582C8.75766 18.6813 8.6544 18.3976 8.56805 18.1086C8.5092 17.9106 8.37892 17.7416 8.20249 17.6342L6.18042 16.4003C6.15544 15.8358 6.18068 15.2702 6.25583 14.7101L8.37388 13.6554C8.55875 13.5639 8.70311 13.4071 8.77904 13.2153C8.89033 12.9348 9.01797 12.6611 9.1613 12.3955C9.25996 12.2138 9.28753 12.0019 9.23864 11.8009L8.68023 9.50225C9.06085 9.08458 9.47794 8.70165 9.92654 8.35802L12.1686 9.11498C12.3642 9.18111 12.5775 9.17223 12.767 9.09006C13.0439 8.97043 13.3276 8.86717 13.6166 8.78082C13.8143 8.72143 13.9832 8.59129 14.091 8.41526L15.3249 6.39318C15.8894 6.36821 16.455 6.39344 17.0151 6.4686L18.0698 8.58665C18.1613 8.77152 18.3181 8.91588 18.5099 8.99181C18.7904 9.1031 19.0641 9.23074 19.3297 9.37407C19.5111 9.47218 19.7225 9.49952 19.9229 9.45078L22.2226 8.89202C22.6403 9.27264 23.0232 9.68973 23.3668 10.1383L22.6099 12.3804C22.543 12.5777 22.5525 12.793 22.6366 12.9836L22.6395 12.9826Z" fill="#706D7E"/>
</g>
<defs>
<clipPath id="clip0_1116_1819">
<rect width="26.6667" height="26.6667" fill="white" transform="translate(2.66669 2.66669)"/>
</clipPath>
</defs>
</svg>
