<svg width="24" height="26" viewBox="0 0 24 26" fill="none" xmlns="http://www.w3.org/2000/svg">
<path d="M16.5266 13.8931C16.6022 14.1008 16.5922 14.33 16.4988 14.5303C16.4054 14.7306 16.2363 14.8856 16.0286 14.9612L9.76395 17.2414C9.55627 17.317 9.32706 17.307 9.12675 17.2135C8.92645 17.1201 8.77145 16.951 8.69586 16.7433C8.62027 16.5356 8.63027 16.3064 8.72368 16.1061C8.81708 15.9058 8.98623 15.7508 9.19392 15.6752L15.4585 13.3951C15.6662 13.3195 15.8954 13.3295 16.0957 13.4229C16.296 13.5163 16.451 13.6855 16.5266 13.8931ZM14.3185 10.2628L8.05385 12.5429C7.84617 12.6185 7.67702 12.7735 7.58361 12.9738C7.49021 13.1741 7.4802 13.4033 7.55579 13.611C7.63138 13.8187 7.78638 13.9878 7.98669 14.0812C8.18699 14.1746 8.4162 14.1846 8.62388 14.1091L14.8885 11.8289C15.0962 11.7533 15.2653 11.5983 15.3587 11.398C15.4521 11.1977 15.4622 10.9685 15.3866 10.7608C15.311 10.5531 15.156 10.384 14.9557 10.2906C14.7554 10.1972 14.5262 10.1872 14.3185 10.2628ZM17.5199 2.00303L23.5052 18.4477C23.6564 18.863 23.6364 19.3214 23.4496 19.7221C23.2628 20.1227 22.9245 20.4327 22.5091 20.5838L8.41372 25.7141C7.99835 25.8653 7.53993 25.8453 7.13932 25.6585C6.73871 25.4717 6.42871 25.1334 6.27753 24.718L0.292176 8.2734C0.140994 7.85803 0.161009 7.39962 0.347818 6.99901C0.534626 6.59839 0.872927 6.2884 1.2883 6.13721L4.83759 4.84538C5.09829 4.1926 5.49391 3.60224 5.99855 3.11295C6.5032 2.62366 7.10549 2.24646 7.76601 2.00605C8.42653 1.76564 9.13037 1.66745 9.83146 1.71789C10.5326 1.76833 11.2151 1.96627 11.8344 2.29875L15.3837 1.00691C15.7991 0.855731 16.2575 0.875745 16.6581 1.06255C17.0587 1.24936 17.3687 1.58766 17.5199 2.00303ZM6.34375 7.84444L12.6084 5.56431C12.306 4.73357 11.686 4.05696 10.8848 3.68335C10.0836 3.30973 9.16673 3.2697 8.33599 3.57206C7.50525 3.87443 6.82865 4.49442 6.45503 5.29564C6.08142 6.09687 6.04139 7.0137 6.34375 7.84444ZM15.9537 2.57307L13.3353 3.52609C13.6965 3.9642 13.9803 4.46072 14.1745 4.99427L14.4595 5.77735C14.5351 5.98503 14.5251 6.21424 14.4317 6.41455C14.3383 6.61485 14.1692 6.76985 13.9615 6.84544L6.13071 9.69561C5.92302 9.7712 5.69381 9.76119 5.49351 9.66779C5.2932 9.57439 5.1382 9.40524 5.06261 9.19755L4.7776 8.41447C4.58341 7.88091 4.48167 7.31813 4.47674 6.75034L1.85833 7.70337L7.84368 24.148L21.9391 19.0177L15.9537 2.57307Z" fill="#706D7E"/>
</svg>
