<svg width="32" height="31" viewBox="0 0 32 31" fill="none" xmlns="http://www.w3.org/2000/svg">
<g filter="url(#filter0_d_1116_971)">
<path d="M21.3656 13.3412L14.3656 20.8412C14.2914 20.9204 14.1935 20.9733 14.0866 20.9919C13.9797 21.0106 13.8697 20.9939 13.7731 20.9445C13.6765 20.8952 13.5986 20.8157 13.5511 20.7181C13.5037 20.6206 13.4892 20.5102 13.51 20.4037L14.4262 15.8206L10.8243 14.4681C10.747 14.4392 10.678 14.3915 10.6236 14.3294C10.5691 14.2673 10.5309 14.1927 10.5123 14.1122C10.4937 14.0318 10.4954 13.9479 10.5171 13.8683C10.5389 13.7886 10.58 13.7155 10.6368 13.6556L17.6368 6.15562C17.711 6.07645 17.8089 6.02356 17.9158 6.00493C18.0227 5.98629 18.1327 6.00293 18.2293 6.05232C18.3259 6.10171 18.4038 6.18118 18.4513 6.27873C18.4988 6.37629 18.5132 6.48663 18.4925 6.59312L17.5737 11.1812L21.1756 12.5319C21.2524 12.561 21.3208 12.6086 21.3748 12.6704C21.4288 12.7323 21.4668 12.8065 21.4853 12.8865C21.5039 12.9665 21.5024 13.0499 21.4811 13.1292C21.4598 13.2085 21.4192 13.2813 21.3631 13.3412H21.3656Z" fill="#4DBF77"/>
</g>
<defs>
<filter id="filter0_d_1116_971" x="0.499512" y="-4.0025" width="30.9988" height="35.0019" filterUnits="userSpaceOnUse" color-interpolation-filters="sRGB">
<feFlood flood-opacity="0" result="BackgroundImageFix"/>
<feColorMatrix in="SourceAlpha" type="matrix" values="0 0 0 0 0 0 0 0 0 0 0 0 0 0 0 0 0 0 127 0" result="hardAlpha"/>
<feOffset/>
<feGaussianBlur stdDeviation="5"/>
<feComposite in2="hardAlpha" operator="out"/>
<feColorMatrix type="matrix" values="0 0 0 0 0.301961 0 0 0 0 0.74902 0 0 0 0 0.466667 0 0 0 1 0"/>
<feBlend mode="normal" in2="BackgroundImageFix" result="effect1_dropShadow_1116_971"/>
<feBlend mode="normal" in="SourceGraphic" in2="effect1_dropShadow_1116_971" result="shape"/>
</filter>
</defs>
</svg>
