<svg width="20" height="20" viewBox="0 0 20 20" fill="none" xmlns="http://www.w3.org/2000/svg">
<path d="M10.75 4.51208V8.54802L14.1644 6.84083C14.3423 6.75182 14.5483 6.73712 14.737 6.79998C14.9257 6.86283 15.0818 6.99809 15.1708 7.17599C15.2598 7.35389 15.2745 7.55987 15.2116 7.7486C15.1488 7.93734 15.0135 8.09338 14.8356 8.18239L10.3356 10.4324C10.2213 10.4896 10.0943 10.5166 9.96657 10.5109C9.83887 10.5052 9.71474 10.467 9.60598 10.3998C9.49721 10.3327 9.40742 10.2388 9.34511 10.1272C9.28281 10.0156 9.25007 9.88991 9.25 9.76208V4.51208C9.25 4.31317 9.32902 4.1224 9.46967 3.98175C9.61033 3.8411 9.80109 3.76208 10 3.76208C10.1989 3.76208 10.3897 3.8411 10.5303 3.98175C10.671 4.1224 10.75 4.31317 10.75 4.51208ZM10 18.0121C8.36831 18.0121 6.77326 17.5282 5.41655 16.6217C4.05984 15.7152 3.00242 14.4267 2.378 12.9192C1.75358 11.4117 1.5902 9.75293 1.90853 8.15259C2.22685 6.55224 3.01259 5.08223 4.16637 3.92845C5.32016 2.77467 6.79017 1.98893 8.39051 1.6706C9.99085 1.35228 11.6497 1.51565 13.1571 2.14008C14.6646 2.7645 15.9531 3.82192 16.8596 5.17863C17.7661 6.53533 18.25 8.13039 18.25 9.76208C18.25 9.96099 18.329 10.1518 18.4697 10.2924C18.6103 10.4331 18.8011 10.5121 19 10.5121C19.1989 10.5121 19.3897 10.4331 19.5303 10.2924C19.671 10.1518 19.75 9.96099 19.75 9.76208C19.75 7.83371 19.1782 5.94865 18.1068 4.34527C17.0355 2.74189 15.5127 1.49221 13.7312 0.754256C11.9496 0.0163019 9.98919 -0.176781 8.09787 0.199425C6.20656 0.575631 4.46928 1.50423 3.10571 2.86779C1.74215 4.23135 0.813554 5.96864 0.437348 7.85995C0.061142 9.75127 0.254225 11.7117 0.992179 13.4932C1.73013 15.2748 2.97982 16.7976 4.58319 17.8689C6.18657 18.9403 8.07164 19.5121 10 19.5121C10.1989 19.5121 10.3897 19.4331 10.5303 19.2924C10.671 19.1518 10.75 18.961 10.75 18.7621C10.75 18.5632 10.671 18.3724 10.5303 18.2318C10.3897 18.0911 10.1989 18.0121 10 18.0121ZM19.7247 18.569C19.7522 18.6648 19.7603 18.7652 19.7485 18.8642C19.7367 18.9632 19.7053 19.0589 19.6561 19.1456C19.607 19.2324 19.541 19.3084 19.462 19.3694C19.3831 19.4303 19.2928 19.4749 19.1964 19.5005C19.1001 19.5261 18.9996 19.5323 18.9008 19.5186C18.802 19.5049 18.707 19.4716 18.6212 19.4208C18.5354 19.3699 18.4607 19.3025 18.4013 19.2224C18.3419 19.1423 18.2991 19.0511 18.2753 18.9543C18.01 17.9577 17.0744 17.2621 16 17.2621C14.9256 17.2621 13.99 17.9577 13.7247 18.9543C13.6823 19.1141 13.5883 19.2555 13.4572 19.3564C13.3261 19.4573 13.1654 19.512 13 19.5121C12.9348 19.5119 12.8699 19.5034 12.8069 19.4868C12.6147 19.4355 12.4507 19.3101 12.351 19.1379C12.2513 18.9658 12.2241 18.7612 12.2753 18.569C12.5186 17.6656 13.0907 16.8859 13.8794 16.3827C13.4595 15.9633 13.1734 15.4287 13.0574 14.8467C12.9414 14.2647 13.0006 13.6613 13.2276 13.1129C13.4545 12.5646 13.8391 12.0958 14.3325 11.766C14.8259 11.4363 15.4061 11.2602 15.9995 11.2602C16.593 11.2602 17.1732 11.4363 17.6666 11.766C18.16 12.0958 18.5445 12.5646 18.7715 13.1129C18.9985 13.6613 19.0577 14.2647 18.9417 14.8467C18.8256 15.4287 18.5396 15.9633 18.1197 16.3827C18.9087 16.8857 19.4812 17.6655 19.7247 18.569ZM14.5 14.2621C14.5 14.5588 14.588 14.8488 14.7528 15.0954C14.9176 15.3421 15.1519 15.5344 15.426 15.6479C15.7001 15.7614 16.0017 15.7911 16.2926 15.7333C16.5836 15.6754 16.8509 15.5325 17.0607 15.3227C17.2704 15.113 17.4133 14.8457 17.4712 14.5547C17.5291 14.2637 17.4994 13.9621 17.3858 13.6881C17.2723 13.414 17.08 13.1797 16.8334 13.0149C16.5867 12.8501 16.2967 12.7621 16 12.7621C15.6022 12.7621 15.2206 12.9201 14.9393 13.2014C14.658 13.4827 14.5 13.8643 14.5 14.2621Z" fill="#CECBDE"/>
</svg>
