<svg width="26" height="23" viewBox="0 0 26 23" fill="none" xmlns="http://www.w3.org/2000/svg">
<path d="M24.9871 9.00037C24.9273 9.09201 24.8501 9.17098 24.7597 9.23276C24.6694 9.29454 24.5678 9.33792 24.4607 9.36043C24.3536 9.38294 24.2431 9.38413 24.1356 9.36395C24.028 9.34376 23.9255 9.30259 23.8338 9.24278C23.1309 8.78014 22.3292 8.48899 21.4933 8.39279C20.6573 8.29658 19.8104 8.39799 19.0208 8.68886C18.8131 8.76445 18.5839 8.75445 18.3836 8.66104C18.1833 8.56764 18.0283 8.39849 17.9527 8.1908C17.8771 7.98312 17.8871 7.75391 17.9805 7.5536C18.0739 7.3533 18.2431 7.1983 18.4507 7.12271C18.8901 6.96275 19.2758 6.68278 19.564 6.31461C19.8523 5.94643 20.0315 5.5048 20.0813 5.03989C20.1311 4.57497 20.0495 4.10541 19.8458 3.68453C19.6422 3.26365 19.3245 2.90832 18.929 2.65891C18.5335 2.4095 18.076 2.276 17.6084 2.27358C17.1409 2.27116 16.682 2.39992 16.2839 2.64522C15.8859 2.89052 15.5646 3.24254 15.3565 3.66129C15.1485 4.08004 15.0621 4.54874 15.1071 5.01414C15.1176 5.12312 15.1066 5.23311 15.0747 5.33783C15.0427 5.44255 14.9904 5.53995 14.9208 5.62447C14.8512 5.70899 14.7657 5.77898 14.669 5.83043C14.5724 5.88188 14.4666 5.91379 14.3576 5.92434C14.2486 5.93489 14.1386 5.92388 14.0339 5.89192C13.9292 5.85996 13.8318 5.80769 13.7472 5.73809C13.6627 5.66849 13.5927 5.58293 13.5413 5.48628C13.4898 5.38964 13.4579 5.2838 13.4474 5.17482C13.3851 4.52939 13.4744 3.87834 13.708 3.27347C13.9416 2.6686 14.3132 2.12661 14.7932 1.69061C15.2731 1.25462 15.8482 0.936658 16.4727 0.762034C17.0972 0.58741 17.7538 0.560942 18.3903 0.684734C19.0268 0.808526 19.6256 1.07916 20.1391 1.47511C20.6526 1.87106 21.0666 2.38138 21.3481 2.96549C21.6297 3.54959 21.7711 4.19135 21.761 4.83969C21.7508 5.48804 21.5896 6.12508 21.2899 6.70012C22.5225 6.7736 23.7145 7.1683 24.7473 7.84501C24.839 7.90503 24.918 7.98256 24.9797 8.07314C25.0414 8.16373 25.0847 8.26561 25.1069 8.37293C25.1292 8.48025 25.1301 8.59092 25.1095 8.69858C25.089 8.80625 25.0474 8.9088 24.9871 9.00037ZM21.9077 16.9496C21.9949 17.0189 22.0672 17.1049 22.1206 17.2025C22.1739 17.3002 22.2071 17.4076 22.2183 17.5183C22.2295 17.629 22.2184 17.7408 22.1857 17.8472C22.1529 17.9536 22.0992 18.0523 22.0277 18.1375C21.9562 18.2228 21.8683 18.2929 21.7693 18.3436C21.6702 18.3944 21.562 18.4248 21.4511 18.433C21.3401 18.4413 21.2286 18.4273 21.1231 18.3917C21.0177 18.3562 20.9204 18.2999 20.8371 18.2262C20.0398 17.5707 19.0854 17.1343 18.068 16.9602C17.0507 16.7861 16.0055 16.8802 15.0356 17.2332C14.0657 17.5862 13.2046 18.186 12.5372 18.9733C11.8697 19.7606 11.4191 20.7083 11.2297 21.723C11.2148 21.8344 11.1775 21.9416 11.1201 22.0382C11.0627 22.1348 10.9863 22.2188 10.8956 22.2852C10.8049 22.3515 10.7017 22.3988 10.5922 22.4243C10.4827 22.4497 10.3692 22.4527 10.2586 22.4331C10.1479 22.4136 10.0423 22.3718 9.94821 22.3104C9.85409 22.2489 9.77338 22.1691 9.71091 22.0757C9.64845 21.9822 9.60553 21.8771 9.58474 21.7667C9.56395 21.6562 9.56572 21.5427 9.58994 21.433C9.87436 19.8522 10.6583 18.4044 11.8266 17.3022C10.8295 16.989 9.95557 16.3711 9.32772 15.5356C8.69988 14.7 8.34966 13.6887 8.32631 12.6437C8.30295 11.5988 8.60763 10.5729 9.19751 9.71008C9.78739 8.84728 10.6328 8.19102 11.615 7.83355C12.5971 7.47608 13.6666 7.43537 14.673 7.71715C15.6795 7.99892 16.5724 8.58901 17.2261 9.40447C17.8799 10.2199 18.2617 11.2198 18.3178 12.2634C18.374 13.3071 18.1017 14.3421 17.5392 15.223C19.1426 15.3163 20.6738 15.9215 21.9077 16.9496ZM14.4663 15.6675C15.0858 15.442 15.6245 15.0378 16.0143 14.5062C16.4042 13.9745 16.6276 13.3392 16.6564 12.6805C16.6851 12.0219 16.5179 11.3695 16.1759 10.8059C15.8339 10.2423 15.3324 9.79274 14.7349 9.51413C14.1374 9.23551 13.4707 9.14032 12.8191 9.24061C12.1675 9.3409 11.5603 9.63216 11.0742 10.0776C10.5882 10.523 10.2451 11.1025 10.0884 11.7429C9.93169 12.3832 9.96841 13.0557 10.1939 13.6752C10.4963 14.506 11.1162 15.1826 11.9175 15.5562C12.7187 15.9298 13.6355 15.9698 14.4663 15.6675ZM6.98961 12.181C6.91402 11.9734 6.75902 11.8042 6.55871 11.7108C6.35841 11.6174 6.1292 11.6074 5.92151 11.683C5.48212 11.8429 5.0067 11.8763 4.54925 11.7795C4.0918 11.6828 3.67066 11.4596 3.33366 11.1355C2.99666 10.8114 2.75731 10.3993 2.6428 9.94592C2.52829 9.49258 2.54321 9.01622 2.68586 8.57094C2.82852 8.12566 3.09319 7.7293 3.44981 7.4269C3.80643 7.1245 4.24071 6.92817 4.70332 6.86021C5.16593 6.79226 5.63833 6.8554 6.06686 7.04246C6.49538 7.22953 6.86285 7.53302 7.12754 7.91846C7.25269 8.10076 7.44513 8.22588 7.66253 8.26628C7.87993 8.30669 8.10448 8.25909 8.28677 8.13394C8.46907 8.00879 8.59418 7.81634 8.63459 7.59895C8.675 7.38155 8.62739 7.157 8.50225 6.9747C8.13506 6.44026 7.64822 5.99889 7.08044 5.6857C6.51266 5.37252 5.87963 5.19618 5.2317 5.1707C4.58378 5.14522 3.93885 5.27131 3.34823 5.53895C2.75762 5.80658 2.23761 6.20836 1.8296 6.71232C1.42159 7.21628 1.13683 7.80852 0.997973 8.4419C0.85912 9.07528 0.870009 9.73233 1.02977 10.3608C1.18954 10.9892 1.49377 11.5717 1.91826 12.0618C2.34274 12.552 2.87577 12.9363 3.47494 13.1843C2.57917 14.0329 1.92085 15.101 1.56529 16.2826C1.50102 16.4941 1.52343 16.7225 1.62757 16.9176C1.73171 17.1126 1.90907 17.2583 2.12062 17.3225C2.33217 17.3868 2.56058 17.3644 2.75562 17.2603C2.95065 17.1561 3.09632 16.9788 3.16059 16.7672C3.40166 15.961 3.82866 15.2226 4.40721 14.6116C4.98576 14.0005 5.6997 13.5339 6.49155 13.2491C6.69923 13.1735 6.86838 13.0185 6.96179 12.8182C7.05519 12.6179 7.0652 12.3887 6.98961 12.181Z" fill="#706D7E"/>
</svg>
